<svg width="350" height="350" viewBox="0 0 350 350" fill="none" xmlns="http://www.w3.org/2000/svg">
<g clip-path="url(#clip0_1255_235)">
<path d="M286 0H64C28.6538 0 0 28.6538 0 64V286C0 321.346 28.6538 350 64 350H286C321.346 350 350 321.346 350 286V64C350 28.6538 321.346 0 286 0Z" fill="black"/>
<path d="M206.8 104.88V239H183.84L179.64 223.6C174.973 229.76 169 234.427 161.72 237.6C154.44 240.773 147.067 242.36 139.6 242.36C130.267 242.36 121.493 240.587 113.28 237.04C105.253 233.307 98.16 228.267 92 221.92C86.0267 215.573 81.2667 208.107 77.72 199.52C74.1733 190.933 72.4 181.787 72.4 172.08C72.4 162.373 74.1733 153.227 77.72 144.64C81.2667 136.053 86.0267 128.587 92 122.24C98.16 115.893 105.253 110.947 113.28 107.4C121.493 103.667 130.267 101.8 139.6 101.8C147.067 101.8 154.253 103.293 161.16 106.28C168.067 109.08 174.227 113.56 179.64 119.72L183.84 104.88H206.8ZM139.6 218.28C145.013 218.28 150.147 217.067 155 214.64C159.853 212.213 164.053 208.947 167.6 204.84C171.147 200.547 173.947 195.6 176 190C178.053 184.4 179.08 178.427 179.08 172.08C179.08 165.733 178.053 159.76 176 154.16C173.947 148.56 171.147 143.707 167.6 139.6C164.053 135.307 159.853 131.947 155 129.52C150.147 127.093 145.013 125.88 139.6 125.88C134.187 125.88 129.053 127.093 124.2 129.52C119.347 131.947 115.147 135.307 111.6 139.6C108.053 143.707 105.253 148.56 103.2 154.16C101.147 159.76 100.12 165.733 100.12 172.08C100.12 178.427 101.147 184.4 103.2 190C105.253 195.6 108.053 200.547 111.6 204.84C115.147 208.947 119.347 212.213 124.2 214.64C129.053 217.067 134.187 218.28 139.6 218.28Z" fill="white"/>
<path d="M230.806 224.44C230.806 219.587 232.486 215.48 235.846 212.12C239.206 208.573 243.312 206.8 248.166 206.8C253.019 206.8 257.126 208.573 260.486 212.12C263.846 215.48 265.526 219.587 265.526 224.44C265.526 229.293 263.846 233.4 260.486 236.76C257.126 240.12 253.019 241.8 248.166 241.8C243.312 241.8 239.206 240.12 235.846 236.76C232.486 233.4 230.806 229.293 230.806 224.44Z" fill="white"/>
</g>
<defs>
<clipPath id="clip0_1255_235">
<rect width="350" height="350" fill="white"/>
</clipPath>
</defs>
</svg>
